<svg width="200" height="64" viewBox="0 0 200 64" fill="none" xmlns="http://www.w3.org/2000/svg">
  <!-- Circular icon -->
  <circle cx="32" cy="32" r="32" fill="url(#gradient)"/>
  
  <!-- Fork icon -->
  <path d="M20 16 L20 48 M16 20 L24 20 M16 24 L24 24 M16 28 L24 28 M16 32 L24 32 M16 36 L24 36 M16 40 L24 40 M16 44 L24 44" 
        stroke="white" 
        stroke-width="2" 
        stroke-linecap="round" 
        stroke-linejoin="round"/>
  
  <!-- QR code pattern (simplified) -->
  <rect x="32" y="16" width="16" height="16" fill="white"/>
  <rect x="34" y="18" width="2" height="2" fill="url(#gradient)"/>
  <rect x="38" y="18" width="2" height="2" fill="url(#gradient)"/>
  <rect x="42" y="18" width="2" height="2" fill="url(#gradient)"/>
  <rect x="46" y="18" width="2" height="2" fill="url(#gradient)"/>
  
  <rect x="34" y="22" width="2" height="2" fill="url(#gradient)"/>
  <rect x="38" y="22" width="2" height="2" fill="url(#gradient)"/>
  <rect x="42" y="22" width="2" height="2" fill="url(#gradient)"/>
  <rect x="46" y="22" width="2" height="2" fill="url(#gradient)"/>
  
  <rect x="34" y="26" width="2" height="2" fill="url(#gradient)"/>
  <rect x="38" y="26" width="2" height="2" fill="url(#gradient)"/>
  <rect x="42" y="26" width="2" height="2" fill="url(#gradient)"/>
  <rect x="46" y="26" width="2" height="2" fill="url(#gradient)"/>
  
  <rect x="34" y="30" width="2" height="2" fill="url(#gradient)"/>
  <rect x="38" y="30" width="2" height="2" fill="url(#gradient)"/>
  <rect x="42" y="30" width="2" height="2" fill="url(#gradient)"/>
  <rect x="46" y="30" width="2" height="2" fill="url(#gradient)"/>
  
  <!-- MenuPRO text -->
  <text x="80" y="40" font-family="Arial, sans-serif" font-size="24" font-weight="bold" fill="url(#gradient)">MenuPRO</text>
  
  <!-- Gradient definition -->
  <defs>
    <linearGradient id="gradient" x1="0%" y1="0%" x2="100%" y2="100%">
      <stop offset="0%" style="stop-color:#f97316;stop-opacity:1" />
      <stop offset="100%" style="stop-color:#dc2626;stop-opacity:1" />
    </linearGradient>
  </defs>
</svg>
