<svg xmlns="http://www.w3.org/2000/svg" width="64" height="64" viewBox="0 0 64 64" fill="none">
  <defs>
    <!-- Gradient Background -->
    <linearGradient id="grad" x1="0" y1="0" x2="1" y2="1">
      <stop offset="0%" stop-color="#f97316"/> <!-- Orange -->
      <stop offset="100%" stop-color="#dc2626"/> <!-- Red -->
    </linearGradient>
  </defs>

  <!-- Circle -->
  <circle cx="32" cy="32" r="29" fill="url(#grad)" />

  <!-- Spoon -->
  <path d="M16 18.67 C16 14.4, 21.33 14.4, 21.33 18.67 C21.33 22.93, 16 22.93, 16 18.67 Z 
           M18.67 22.93 V40"
        stroke="white" stroke-width="2.13" stroke-linecap="round" fill="none"/>

  <!-- Fork (3 tines, beside spoon) -->
  <line x1="26.67" y1="14.93" x2="26.67" y2="40" stroke="white" stroke-width="2.13" stroke-linecap="round"/>
  <line x1="24.53" y1="14.93" x2="24.53" y2="22.4" stroke="white" stroke-width="1.6" stroke-linecap="round"/>
  <line x1="28.8" y1="14.93" x2="28.8" y2="22.4" stroke="white" stroke-width="1.6" stroke-linecap="round"/>

  <!-- QR Code (3x3 dots, beside fork with equal spacing) -->
  <circle cx="38.4" cy="23.47" r="1.6" fill="white"/>
  <circle cx="44.8" cy="23.47" r="1.6" fill="white"/>
  <circle cx="51.2" cy="23.47" r="1.6" fill="white"/>

  <circle cx="38.4" cy="29.87" r="1.6" fill="white"/>
  <circle cx="44.8" cy="29.87" r="1.6" fill="white"/>
  <circle cx="51.2" cy="29.87" r="1.6" fill="white"/>

  <circle cx="38.4" cy="36.27" r="1.6" fill="white"/>
  <circle cx="44.8" cy="36.27" r="1.6" fill="white"/>
  <circle cx="51.2" cy="36.27" r="1.6" fill="white"/>
</svg>
