<svg xmlns="http://www.w3.org/2000/svg" width="32" height="32" viewBox="0 0 32 32" fill="none">
  <defs>
    <!-- Gradient Background -->
    <linearGradient id="grad" x1="0" y1="0" x2="1" y2="1">
      <stop offset="0%" stop-color="#f97316"/> <!-- Orange -->
      <stop offset="100%" stop-color="#dc2626"/> <!-- Red -->
    </linearGradient>
  </defs>

  <!-- Circle -->
  <circle cx="16" cy="16" r="14.67" fill="url(#grad)" />

  <!-- Spoon -->
  <path d="M8 9.33 C8 7.2, 10.67 7.2, 10.67 9.33 C10.67 11.47, 8 11.47, 8 9.33 Z 
           M9.33 11.47 V20"
        stroke="white" stroke-width="1.07" stroke-linecap="round" fill="none"/>

  <!-- Fork (3 tines, beside spoon) -->
  <line x1="13.33" y1="7.47" x2="13.33" y2="20" stroke="white" stroke-width="1.07" stroke-linecap="round"/>
  <line x1="12.27" y1="7.47" x2="12.27" y2="11.2" stroke="white" stroke-width="0.8" stroke-linecap="round"/>
  <line x1="14.4" y1="7.47" x2="14.4" y2="11.2" stroke="white" stroke-width="0.8" stroke-linecap="round"/>

  <!-- QR Code (3x3 dots, beside fork with equal spacing) -->
  <circle cx="19.2" cy="11.73" r="0.8" fill="white"/>
  <circle cx="22.4" cy="11.73" r="0.8" fill="white"/>
  <circle cx="25.6" cy="11.73" r="0.8" fill="white"/>

  <circle cx="19.2" cy="14.93" r="0.8" fill="white"/>
  <circle cx="22.4" cy="14.93" r="0.8" fill="white"/>
  <circle cx="25.6" cy="14.93" r="0.8" fill="white"/>

  <circle cx="19.2" cy="18.13" r="0.8" fill="white"/>
  <circle cx="22.4" cy="18.13" r="0.8" fill="white"/>
  <circle cx="25.6" cy="18.13" r="0.8" fill="white"/>
</svg>
